<svg width="182" height="41" viewBox="0 0 182 41" fill="none" xmlns="http://www.w3.org/2000/svg">
<path opacity="0.6" d="M0.922455 18.5563C2.80791 25.0161 14.2711 24.6793 22.1359 20.6302C16.8695 23.2618 4.41147 23.7644 0.922455 18.5563Z" fill="#424242"/>
<path opacity="0.6" d="M23.8048 40.5757C18.494 42.7803 20.67 30.9599 23.2044 25.4199C21.357 30.3441 19.78 41.1992 24.5347 39.9876L24.2538 40.2528C24.0812 40.3834 23.9543 40.4742 23.8048 40.5757Z" fill="#424242"/>
<path fill-rule="evenodd" clip-rule="evenodd" d="M23.9791 1.11953C22.4853 -0.373605 20.064 -0.373115 18.5709 1.12064L6.10956 13.5871L6.09894 13.584L6.05956 13.5882C6.07578 13.596 6.0917 13.6037 6.1073 13.6115C3.92132 13.8405 2.99384 14.4974 2.98334 15.341C2.98704 15.6548 3.11579 15.9937 3.35228 16.3455L3.34091 16.3569C5.32819 19.3542 15.1731 23.3081 22.1381 20.6292C16.9181 23.2392 4.62476 23.7565 1.01401 18.6889C0.229868 19.5372 -0.0982121 20.652 0.0253379 21.7233C0.979198 26.9807 11.6434 28.415 22.3077 20.7977L24.6154 23.1054C21.7438 26.0556 17.5021 43.1921 23.8048 40.5757C23.9543 40.4742 24.0812 40.3834 24.2538 40.2528L24.5347 39.9876C24.5185 39.9916 24.5024 39.9954 24.4864 39.9992L41.3664 24.0635C42.9337 22.5838 42.9692 20.1019 41.4447 18.578L23.9791 1.11953ZM22.1409 6.31282L22.7178 4.00513L23.2947 6.31282L25.0255 6.88975L23.2947 7.46668L22.7178 9.77438L22.1409 7.46668L20.4101 6.88975L22.1409 6.31282ZM15 13.8462L15.3846 12.3077L15.7692 13.8462L16.9231 14.2308L15.7692 14.6154L15.3846 16.1539L15 14.6154L13.8462 14.2308L15 13.8462ZM28.3956 26.8231L28.011 28.3615L26.8572 28.7462L28.011 29.1308L28.3956 30.6692L28.7802 29.1308L29.9341 28.7462L28.7802 28.3615L28.3956 26.8231Z" fill="#4845D2"/>
<path fill-rule="evenodd" clip-rule="evenodd" d="M42.6663 2.64667C39.0576 2.64667 35.6353 4.24958 33.325 7.02188L25.106 16.8848L29.852 9.76569L21.974 13.142C20.9735 13.5708 20.7225 14.8743 21.4921 15.644L24.0273 18.1791L22.7329 19.7324L25.5806 22.58L27.1338 21.2856L29.669 23.8208C30.4386 24.5904 31.7422 24.3394 32.1709 23.339L35.5472 15.461L28.4282 20.207L38.2911 11.9879C41.0634 9.67769 42.6663 6.25539 42.6663 2.64667ZM34.8354 10.4778C35.6217 11.2641 36.8966 11.2641 37.683 10.4778C38.4693 9.69139 38.4693 8.41649 37.683 7.63019C36.8966 6.8438 35.6217 6.8438 34.8354 7.63019C34.049 8.41649 34.049 9.69139 34.8354 10.4778Z" fill="#A3A2FF"/>
<path d="M53.5732 19.3506H49.5449L49.5234 16.8799H52.7891C53.3763 16.8799 53.8454 16.8154 54.1963 16.6865C54.5472 16.5505 54.8014 16.3535 54.959 16.0957C55.1237 15.8379 55.2061 15.5156 55.2061 15.1289C55.2061 14.6849 55.1237 14.3268 54.959 14.0547C54.7943 13.7826 54.5329 13.5856 54.1748 13.4639C53.8239 13.335 53.3691 13.2705 52.8105 13.2705H50.9629V26H47.1924V10.3594H52.8105C53.7773 10.3594 54.6403 10.4489 55.3994 10.6279C56.1585 10.7998 56.8031 11.0648 57.333 11.4229C57.8701 11.7809 58.2783 12.2321 58.5576 12.7764C58.8369 13.3135 58.9766 13.9473 58.9766 14.6777C58.9766 15.3151 58.8405 15.9131 58.5684 16.4717C58.2962 17.0303 57.8415 17.485 57.2041 17.8359C56.5739 18.1797 55.7109 18.3587 54.6152 18.373L53.5732 19.3506ZM53.4229 26H48.6318L49.9209 23.0996H53.4229C53.9385 23.0996 54.3503 23.0208 54.6582 22.8633C54.9733 22.6986 55.1989 22.4837 55.335 22.2188C55.4782 21.9466 55.5498 21.6458 55.5498 21.3164C55.5498 20.9154 55.4818 20.568 55.3457 20.2744C55.2168 19.9808 55.0091 19.7552 54.7227 19.5977C54.4362 19.4329 54.0531 19.3506 53.5732 19.3506H50.4043L50.4258 16.8799H54.2178L55.0986 17.8682C56.1442 17.8252 56.9714 17.972 57.5801 18.3086C58.196 18.6452 58.6364 19.0892 58.9014 19.6406C59.1663 20.1921 59.2988 20.7686 59.2988 21.3701C59.2988 22.3942 59.0768 23.25 58.6328 23.9375C58.196 24.625 57.5407 25.1406 56.667 25.4844C55.7933 25.8281 54.7119 26 53.4229 26ZM66.3659 9.5V26H62.735V9.5H66.3659ZM69.4691 20.3066V20.0811C69.4691 19.2288 69.5908 18.4447 69.8343 17.7285C70.0778 17.0052 70.4359 16.3786 70.9086 15.8486C71.3812 15.3187 71.9649 14.9069 72.6595 14.6133C73.3542 14.3125 74.1563 14.1621 75.0658 14.1621C75.9824 14.1621 76.7881 14.3125 77.4828 14.6133C78.1846 14.9069 78.7718 15.3187 79.2445 15.8486C79.7171 16.3786 80.0752 17.0052 80.3187 17.7285C80.5622 18.4447 80.6839 19.2288 80.6839 20.0811V20.3066C80.6839 21.1517 80.5622 21.9359 80.3187 22.6592C80.0752 23.3753 79.7171 24.002 79.2445 24.5391C78.7718 25.069 78.1882 25.4808 77.4935 25.7744C76.7989 26.068 75.9968 26.2148 75.0873 26.2148C74.1778 26.2148 73.3721 26.068 72.6703 25.7744C71.9684 25.4808 71.3812 25.069 70.9086 24.5391C70.4359 24.002 70.0778 23.3753 69.8343 22.6592C69.5908 21.9359 69.4691 21.1517 69.4691 20.3066ZM73.0892 20.0811V20.3066C73.0892 20.7435 73.1214 21.1517 73.1859 21.5312C73.2504 21.9108 73.3578 22.2438 73.5082 22.5303C73.6586 22.8096 73.8627 23.028 74.1205 23.1855C74.3783 23.3431 74.7005 23.4219 75.0873 23.4219C75.4668 23.4219 75.7819 23.3431 76.0326 23.1855C76.2904 23.028 76.4945 22.8096 76.6449 22.5303C76.7953 22.2438 76.9027 21.9108 76.9671 21.5312C77.0316 21.1517 77.0638 20.7435 77.0638 20.3066V20.0811C77.0638 19.6585 77.0316 19.2611 76.9671 18.8887C76.9027 18.5091 76.7953 18.1761 76.6449 17.8896C76.4945 17.596 76.2904 17.3669 76.0326 17.2021C75.7748 17.0374 75.4525 16.9551 75.0658 16.9551C74.6862 16.9551 74.3675 17.0374 74.1097 17.2021C73.8591 17.3669 73.6586 17.596 73.5082 17.8896C73.3578 18.1761 73.2504 18.5091 73.1859 18.8887C73.1214 19.2611 73.0892 19.6585 73.0892 20.0811ZM88.5245 23.4219C88.861 23.4219 89.1475 23.361 89.3838 23.2393C89.6273 23.1104 89.8099 22.9313 89.9317 22.7021C90.0606 22.4658 90.1215 22.1829 90.1143 21.8535H93.5196C93.5267 22.7272 93.3119 23.4935 92.875 24.1523C92.4454 24.804 91.8581 25.3125 91.1133 25.6777C90.3757 26.0358 89.5414 26.2148 88.6104 26.2148C87.7009 26.2148 86.906 26.068 86.2256 25.7744C85.5453 25.4736 84.9759 25.0583 84.5176 24.5283C84.0664 23.9912 83.7263 23.3646 83.4971 22.6484C83.2751 21.9323 83.1641 21.1553 83.1641 20.3174V20.0703C83.1641 19.2324 83.2751 18.4554 83.4971 17.7393C83.7263 17.016 84.0664 16.3893 84.5176 15.8594C84.9759 15.3223 85.5417 14.9069 86.2149 14.6133C86.8952 14.3125 87.6866 14.1621 88.5889 14.1621C89.5557 14.1621 90.4079 14.3447 91.1455 14.71C91.8903 15.0752 92.474 15.6051 92.8965 16.2998C93.319 16.9945 93.5267 17.8359 93.5196 18.8242H90.1143C90.1215 18.4733 90.0677 18.1582 89.9532 17.8789C89.8386 17.5996 89.6595 17.3776 89.4161 17.2129C89.1797 17.041 88.8754 16.9551 88.503 16.9551C88.1306 16.9551 87.8298 17.0374 87.6006 17.2021C87.3715 17.3669 87.196 17.596 87.0743 17.8896C86.9597 18.1761 86.8809 18.5055 86.8379 18.8779C86.8021 19.2503 86.7842 19.6478 86.7842 20.0703V20.3174C86.7842 20.7471 86.8021 21.1517 86.8379 21.5312C86.8809 21.9036 86.9633 22.2331 87.085 22.5195C87.2067 22.7988 87.3822 23.0208 87.6114 23.1855C87.8405 23.3431 88.1449 23.4219 88.5245 23.4219ZM100.039 9.48926V26H96.4187V9.48926H100.039ZM107.472 14.377L102.424 20.2959L99.781 22.9385L98.2019 20.6396L100.404 17.7715L103.133 14.377H107.472ZM103.594 26L100.49 20.7041L103.165 18.8027L107.741 26H103.594ZM116.29 19.3506H112.262L112.241 16.8799H115.506C116.093 16.8799 116.563 16.8154 116.913 16.6865C117.264 16.5505 117.519 16.3535 117.676 16.0957C117.841 15.8379 117.923 15.5156 117.923 15.1289C117.923 14.6849 117.841 14.3268 117.676 14.0547C117.511 13.7826 117.25 13.5856 116.892 13.4639C116.541 13.335 116.086 13.2705 115.528 13.2705H113.68V26H109.91V10.3594H115.528C116.495 10.3594 117.357 10.4489 118.117 10.6279C118.876 10.7998 119.52 11.0648 120.05 11.4229C120.587 11.7809 120.996 12.2321 121.275 12.7764C121.554 13.3135 121.694 13.9473 121.694 14.6777C121.694 15.3151 121.558 15.9131 121.286 16.4717C121.013 17.0303 120.559 17.485 119.921 17.8359C119.291 18.1797 118.428 18.3587 117.332 18.373L116.29 19.3506ZM116.14 26H111.349L112.638 23.0996H116.14C116.656 23.0996 117.067 23.0208 117.375 22.8633C117.69 22.6986 117.916 22.4837 118.052 22.2188C118.195 21.9466 118.267 21.6458 118.267 21.3164C118.267 20.9154 118.199 20.568 118.063 20.2744C117.934 19.9808 117.726 19.7552 117.44 19.5977C117.153 19.4329 116.77 19.3506 116.29 19.3506H113.121L113.143 16.8799H116.935L117.816 17.8682C118.861 17.8252 119.689 17.972 120.297 18.3086C120.913 18.6452 121.354 19.0892 121.619 19.6406C121.884 20.1921 122.016 20.7686 122.016 21.3701C122.016 22.3942 121.794 23.25 121.35 23.9375C120.913 24.625 120.258 25.1406 119.384 25.4844C118.51 25.8281 117.429 26 116.14 26ZM132.048 23.1748V14.377H135.679V26H132.284L132.048 23.1748ZM132.392 20.8115L133.337 20.79C133.337 21.5706 133.244 22.2939 133.058 22.96C132.871 23.6188 132.596 24.1917 132.231 24.6787C131.872 25.1657 131.428 25.5452 130.899 25.8174C130.376 26.0824 129.771 26.2148 129.083 26.2148C128.51 26.2148 127.984 26.1361 127.504 25.9785C127.031 25.8138 126.623 25.5596 126.279 25.2158C125.936 24.8649 125.667 24.4173 125.474 23.873C125.288 23.3216 125.194 22.6628 125.194 21.8965V14.377H128.815V21.918C128.815 22.1758 128.847 22.3978 128.911 22.584C128.976 22.7702 129.069 22.9277 129.191 23.0566C129.312 23.1784 129.463 23.2715 129.642 23.3359C129.828 23.3932 130.039 23.4219 130.275 23.4219C130.82 23.4219 131.246 23.3073 131.554 23.0781C131.862 22.849 132.077 22.5374 132.198 22.1436C132.327 21.7497 132.392 21.3057 132.392 20.8115ZM145.088 22.7344C145.088 22.5339 145.02 22.362 144.884 22.2188C144.755 22.0684 144.525 21.9323 144.196 21.8105C143.867 21.6816 143.405 21.5527 142.81 21.4238C142.245 21.3021 141.711 21.141 141.21 20.9404C140.716 20.7399 140.282 20.4964 139.91 20.21C139.538 19.9235 139.244 19.5833 139.029 19.1895C138.821 18.7956 138.718 18.3444 138.718 17.8359C138.718 17.3418 138.821 16.8763 139.029 16.4395C139.244 15.9954 139.555 15.6051 139.964 15.2686C140.379 14.9248 140.884 14.6562 141.478 14.4629C142.073 14.2624 142.749 14.1621 143.509 14.1621C144.554 14.1621 145.456 14.3232 146.216 14.6455C146.975 14.9606 147.558 15.4046 147.967 15.9775C148.382 16.5433 148.59 17.1986 148.59 17.9434H144.969C144.969 17.6497 144.919 17.3991 144.819 17.1914C144.726 16.9837 144.572 16.8262 144.357 16.7188C144.142 16.6042 143.856 16.5469 143.498 16.5469C143.247 16.5469 143.018 16.5934 142.81 16.6865C142.61 16.7796 142.449 16.9085 142.327 17.0732C142.205 17.238 142.144 17.4313 142.144 17.6533C142.144 17.8109 142.18 17.9541 142.252 18.083C142.33 18.2048 142.449 18.3193 142.606 18.4268C142.764 18.527 142.964 18.6201 143.208 18.7061C143.451 18.7848 143.745 18.8564 144.089 18.9209C144.869 19.0641 145.6 19.2682 146.28 19.5332C146.96 19.7982 147.512 20.1742 147.934 20.6611C148.364 21.1481 148.579 21.8034 148.579 22.627C148.579 23.1426 148.461 23.6188 148.224 24.0557C147.988 24.4854 147.648 24.8649 147.204 25.1943C146.76 25.5166 146.226 25.7673 145.603 25.9463C144.98 26.1253 144.278 26.2148 143.498 26.2148C142.388 26.2148 141.45 26.0179 140.683 25.624C139.917 25.223 139.337 24.7217 138.943 24.1201C138.556 23.5114 138.363 22.8955 138.363 22.2725H141.736C141.75 22.6305 141.836 22.9242 141.994 23.1533C142.159 23.3825 142.377 23.5508 142.649 23.6582C142.921 23.7656 143.236 23.8193 143.594 23.8193C143.924 23.8193 144.196 23.7728 144.411 23.6797C144.633 23.5866 144.801 23.4613 144.916 23.3037C145.03 23.139 145.088 22.9492 145.088 22.7344ZM157.719 14.377V16.8906H150.715V14.377H157.719ZM152.187 11.4873H155.807V22.208C155.807 22.516 155.843 22.7559 155.914 22.9277C155.986 23.0924 156.108 23.2106 156.28 23.2822C156.459 23.3467 156.695 23.3789 156.989 23.3789C157.196 23.3789 157.368 23.3753 157.504 23.3682C157.64 23.3538 157.769 23.3359 157.891 23.3145V25.9033C157.583 26.0036 157.261 26.0788 156.924 26.1289C156.588 26.1862 156.23 26.2148 155.85 26.2148C155.077 26.2148 154.414 26.0931 153.863 25.8496C153.318 25.6061 152.903 25.223 152.617 24.7002C152.33 24.1774 152.187 23.4971 152.187 22.6592V11.4873ZM166.108 26.2148C165.162 26.2148 164.317 26.068 163.572 25.7744C162.828 25.4736 162.197 25.0618 161.682 24.5391C161.173 24.0163 160.783 23.4147 160.511 22.7344C160.246 22.054 160.113 21.3343 160.113 20.5752V20.167C160.113 19.3148 160.232 18.527 160.468 17.8037C160.704 17.0732 161.055 16.4359 161.521 15.8916C161.986 15.3473 162.57 14.9248 163.272 14.624C163.973 14.3161 164.79 14.1621 165.721 14.1621C166.544 14.1621 167.282 14.2946 167.934 14.5596C168.585 14.8245 169.137 15.2041 169.588 15.6982C170.046 16.1924 170.394 16.7904 170.63 17.4922C170.873 18.194 170.995 18.9818 170.995 19.8555V21.3271H161.499V19.0605H167.461V18.7812C167.468 18.3945 167.4 18.0651 167.257 17.793C167.121 17.5208 166.92 17.3132 166.655 17.1699C166.39 17.0267 166.068 16.9551 165.689 16.9551C165.295 16.9551 164.969 17.041 164.711 17.2129C164.46 17.3848 164.263 17.6211 164.12 17.9219C163.984 18.2155 163.887 18.5557 163.83 18.9424C163.773 19.3291 163.744 19.7373 163.744 20.167V20.5752C163.744 21.0049 163.802 21.3952 163.916 21.7461C164.038 22.097 164.21 22.3978 164.432 22.6484C164.661 22.8919 164.933 23.0817 165.248 23.2178C165.57 23.3538 165.936 23.4219 166.344 23.4219C166.838 23.4219 167.325 23.3288 167.805 23.1426C168.285 22.9564 168.696 22.6484 169.04 22.2188L170.684 24.1738C170.447 24.5104 170.111 24.8363 169.674 25.1514C169.244 25.4665 168.729 25.7243 168.127 25.9248C167.526 26.1182 166.852 26.2148 166.108 26.2148ZM177.439 17.2559V26H173.819V14.377H177.203L177.439 17.2559ZM180.877 14.291L180.812 17.6533C180.669 17.639 180.476 17.6211 180.232 17.5996C179.989 17.5781 179.785 17.5674 179.62 17.5674C179.197 17.5674 178.832 17.6175 178.524 17.7178C178.223 17.8109 177.973 17.9541 177.772 18.1475C177.579 18.3337 177.436 18.57 177.343 18.8564C177.257 19.1429 177.217 19.4759 177.224 19.8555L176.569 19.4258C176.569 18.6452 176.644 17.9362 176.795 17.2988C176.952 16.6543 177.174 16.0993 177.461 15.6338C177.747 15.1611 178.095 14.7995 178.503 14.5488C178.911 14.291 179.369 14.1621 179.878 14.1621C180.057 14.1621 180.232 14.1729 180.404 14.1943C180.583 14.2158 180.741 14.248 180.877 14.291Z" fill="#4845D2"/>
</svg>
